<svg xmlns="http://www.w3.org/2000/svg" viewBox="0 0 512 512">
  <rect width="512" height="512" rx="112" fill="#15123a"/>
  <circle cx="120" cy="110" r="4" fill="#fff6e8" opacity=".7"/><circle cx="400" cy="90" r="5" fill="#fff6e8" opacity=".6"/><circle cx="430" cy="220" r="3" fill="#fff6e8" opacity=".5"/>
  <path d="M96 318 Q256 520 416 318 Z" fill="#6b4fb8"/>
  <path d="M130 360 Q256 470 382 360" fill="none" stroke="#3a2a4f" stroke-width="10"/>
  <ellipse cx="256" cy="318" rx="160" ry="40" fill="#3e8f5a"/>
  <ellipse cx="256" cy="306" rx="160" ry="36" fill="#7bd389"/>
  <path d="M170 250 q-60 10 -86 -20 l14 38 q40 8 80 -4z" fill="#ff6b6b"/>
  <circle cx="256" cy="232" r="72" fill="#fff6e8" stroke="#3a2a3f" stroke-width="8"/>
  <rect x="192" y="248" width="128" height="26" rx="13" fill="#ff6b6b"/>
  <ellipse cx="236" cy="222" rx="9" ry="14" fill="#231a2b"/><ellipse cx="280" cy="222" rx="9" ry="14" fill="#231a2b"/>
  <circle cx="239" cy="216" r="3.5" fill="#fff"/><circle cx="283" cy="216" r="3.5" fill="#fff"/>
  <path d="M256 160 q0 -24 18 -34" stroke="#3e8f5a" stroke-width="7" fill="none"/>
  <ellipse cx="262" cy="128" rx="18" ry="9" fill="#7bd389" transform="rotate(-25 262 128)"/>
  <ellipse cx="290" cy="124" rx="18" ry="9" fill="#7bd389" transform="rotate(25 290 124)"/>
</svg>
